<svg width="378" height="193" viewBox="0 0 378 193" fill="none" xmlns="http://www.w3.org/2000/svg">
<path d="M202.678 102.472C202.312 104.34 201.751 107.064 201.018 110.349C197.871 124.542 196.052 128.902 195.228 130.77C194.381 132.688 193.191 135.094 191.555 137.757C190.044 140.077 187.675 143.265 184.265 146.392C178.497 151.692 172.959 153.866 169.766 155.088C165.04 156.883 157.933 157.762 149.866 158.605C143.068 159.326 135.767 159.778 128.02 159.851C124.072 159.888 120.249 159.814 116.553 159.668C116.427 161.158 116.301 162.636 116.187 164.126C116.038 165.762 115.683 168.083 114.745 170.684C113.166 175.057 110.866 177.744 108.794 180.052C100.612 189.2 95.9318 190.226 97.4195 190.25C113.441 190.446 133.215 190.25 141.477 190.25C142.175 190.25 164.731 190.092 178.166 185.414C178.166 185.402 183.338 183.704 186.245 182.605C188.797 181.628 193.305 179.612 197.299 176.901C202.403 173.151 209.59 166.605 214.865 156.016C216.49 152.755 217.543 149.885 218.184 147.931" fill="url(#paint0_linear_77_3)"/>
<path d="M356.709 1.66107C351.788 1.66107 344.613 1.57558 335.206 1.39237C332.609 8.12204 330.709 12.983 329.507 15.9876C328.294 18.9799 327.093 21.8134 325.88 24.5004L285.095 115.54C279.659 127.619 276.077 135.741 274.349 139.894L267.357 156.773C264.325 146.074 261.853 137.439 259.953 130.893L242.101 73.3668L229.627 33.1964C227.35 29.4225 224.73 25.8805 221.777 22.5585C217.028 17.2089 211.409 12.7632 204.921 9.20904C198.444 5.6549 190.857 3.23662 182.171 1.94198C181.301 1.80763 180.431 1.6855 179.55 1.58779C178.784 1.49008 177.971 1.4168 177.193 1.31909L196.636 53.8984C198.596 57.8556 213.461 103.302 241.231 190.238C253.682 190.055 261.59 189.97 264.965 189.97C268.765 189.97 276.283 190.055 287.521 190.238L295.039 172.944L365.909 23.5233L377.044 1.39237C366.424 1.57558 359.65 1.66107 356.709 1.66107Z" fill="#10002B"/>
<path d="M177.192 1.31906C169.903 0.451901 162.133 0 153.836 0C146.318 0 137.392 0.146563 127.069 0.415261C116.736 0.696172 108.416 0.830521 102.111 0.830521C98.4719 0.830521 94.7412 0.818307 90.9076 0.781667C82.1876 0.708386 75.0582 8.18307 74.9552 17.4898C74.9324 19.1386 74.9095 20.3722 74.8866 21.1783L74.6577 29.2881H114.241C126.051 28.9461 136.579 28.7873 145.826 28.7873C160.862 28.7873 171.997 30.7415 179.207 34.662C186.427 38.5826 192.241 44.9947 196.647 53.8984L177.192 1.31906Z" fill="url(#paint1_linear_77_3)"/>
<path d="M108.417 143.607C109.63 118.313 110.843 93.0184 112.044 67.7241C112.17 65.0493 112.285 62.5334 112.399 60.1639L114.219 29.2881H74.6352L73.1933 81.0857L71.2136 127.277C71.1106 128.23 71.0076 129.109 70.9046 129.94C70.218 135.668 69.2682 140.199 68.0552 143.521C66.8421 146.66 65.2858 149.433 63.3862 151.839C62.093 153.5 60.4909 155.027 58.5913 156.407C55.9936 158.068 53.0182 159.411 49.6424 160.425C47.5024 161.109 45.3281 161.597 43.1081 161.891C42.1239 162.025 41.1398 162.11 40.1327 162.171C39.3775 162.22 38.6107 162.233 37.844 162.233C34.7657 162.233 31.6073 162 28.3687 161.561C26.3432 161.28 24.2948 160.913 22.2235 160.462C16.8221 159.277 9.41809 157.054 0 153.793V185.609C17.6232 189.762 35.3836 192.937 48.6125 192.937C59.667 192.937 65.8008 191.46 69.1881 190.58C77.027 188.54 95.4512 183.741 103.645 167.326C105.785 163.051 106.666 159.094 107.078 156.541" fill="#10002B"/>
<defs>
<linearGradient id="paint0_linear_77_3" x1="97.1563" y1="146.404" x2="218.184" y2="146.404" gradientUnits="userSpaceOnUse">
<stop stop-color="#9D00F7"/>
<stop offset="1" stop-color="#3C096C"/>
</linearGradient>
<linearGradient id="paint1_linear_77_3" x1="74.6463" y1="26.9553" x2="196.635" y2="26.9553" gradientUnits="userSpaceOnUse">
<stop stop-color="#9D00F7"/>
<stop offset="1" stop-color="#3C096C"/>
</linearGradient>
</defs>
</svg>
